<?xml version="1.0" standalone="no"?>
<!DOCTYPE svg PUBLIC "-//W3C//DTD SVG 1.1//EN"
"http://www.w3.org/Graphics/SVG/1.1/DTD/svg11.dtd">
<!-- Created with dep2pict 2.36.0 -->
<svg xmlns:svg="http://www.w3.org/2000/svg" xmlns="http://www.w3.org/2000/svg" xmlns:xlink="http://www.w3.org/1999/xlink" width="1955.29200" height="258.73200">
<rect x="0" y="0" width="1955.29200" height="258.73200" style="fill:white;fill-opacity:0;" />
<g  transform="translate(0,129.49600) scale(2,2)">
<text id="word__N_0" x="27.184" y="-13" font-style="normal" font-weight="normal" fill="black" font-size="12" font-family="Arial" text-anchor="middle" text-align="center">
<tspan   x="27.184" dy="10.748">__0__</tspan>
</text>
<text id="word__N_1" x="82.0745" y="-13" font-style="normal" font-weight="normal" fill="black" font-size="12" font-family="Arial" text-anchor="middle" text-align="center">
<tspan   x="82.0745" dy="10.748">could</tspan>
</text>
<text id="subword__N_1" x="82.0745" y="-2.252" fill="black" font-size="7" font-family="Arial" text-anchor="middle" text-align="center">
<tspan   x="82.0745" dy="7.103">upos=AUX</tspan>
<tspan   x="82.0745" dy="7.103">lemma=can</tspan>
</text>
<rect x="121.912" y="-11" width="39.748" height="10.748" style="fill:#8bf56e;fill-opacity:100;" />
<text id="word__N_2" x="141.786" y="-13" font-style="normal" font-weight="normal" fill="black" font-size="12" font-family="Arial" text-anchor="middle" text-align="center">
<tspan   x="141.786" dy="10.748">[SUBJ]</tspan>
<tspan   x="141.786" dy="10.748">you</tspan>
</text>
<text id="subword__N_2" x="141.786" y="8.496" fill="black" font-size="7" font-family="Arial" text-anchor="middle" text-align="center">
<tspan   x="141.786" dy="7.103">upos=PRON</tspan>
<tspan   x="141.786" dy="7.103">lemma=you</tspan>
<tspan   x="141.786" dy="7.103">PronType=Prs</tspan>
</text>
<rect x="184.233" y="-11" width="41.752" height="10.748" style="fill:#8bf56e;fill-opacity:100;" />
<text id="word__N_3" x="205.109" y="-13" font-style="normal" font-weight="normal" fill="black" font-size="12" font-family="Arial" text-anchor="middle" text-align="center">
<tspan   x="205.109" dy="10.748">[VERB]</tspan>
<tspan   x="205.109" dy="10.748">find</tspan>
</text>
<rect x="185.374" y="17.599" width="39.469" height="7.103" style="fill:#8bf56e;fill-opacity:100;" />
<text id="subword__N_3" x="205.109" y="8.496" fill="black" font-size="7" font-family="Arial" text-anchor="middle" text-align="center">
<tspan   x="205.109" dy="7.103">upos=VERB</tspan>
<tspan   x="205.109" dy="7.103">lemma=find</tspan>
<tspan   x="205.109" dy="7.103">VerbForm=Inf</tspan>
</text>
<text id="word__N_4" x="268.432" y="-13" font-style="normal" font-weight="normal" fill="black" font-size="12" font-family="Arial" text-anchor="middle" text-align="center">
<tspan   x="268.432" dy="10.748">me</tspan>
</text>
<text id="subword__N_4" x="268.432" y="-2.252" fill="black" font-size="7" font-family="Arial" text-anchor="middle" text-align="center">
<tspan   x="268.432" dy="7.103">upos=PRON</tspan>
<tspan   x="268.432" dy="7.103">lemma=I</tspan>
<tspan   x="268.432" dy="7.103">PronType=Prs</tspan>
</text>
<text id="word__N_5" x="331.723" y="-13" font-style="normal" font-weight="normal" fill="black" font-size="12" font-family="Arial" text-anchor="middle" text-align="center">
<tspan   x="331.723" dy="10.748">a</tspan>
</text>
<text id="subword__N_5" x="331.723" y="-2.252" fill="black" font-size="7" font-family="Arial" text-anchor="middle" text-align="center">
<tspan   x="331.723" dy="7.103">upos=DET</tspan>
<tspan   x="331.723" dy="7.103">lemma=a</tspan>
<tspan   x="331.723" dy="7.103">PronType=Art</tspan>
</text>
<rect x="377.767" y="-11" width="32.416" height="10.748" style="fill:#8bf56e;fill-opacity:100;" />
<text id="word__N_6" x="393.975" y="-13" font-style="normal" font-weight="normal" fill="black" font-size="12" font-family="Arial" text-anchor="middle" text-align="center">
<tspan   x="393.975" dy="10.748">[OBJ]</tspan>
<tspan   x="393.975" dy="10.748">flight</tspan>
</text>
<text id="subword__N_6" x="393.975" y="8.496" fill="black" font-size="7" font-family="Arial" text-anchor="middle" text-align="center">
<tspan   x="393.975" dy="7.103">upos=NOUN</tspan>
<tspan   x="393.975" dy="7.103">lemma=flight</tspan>
<tspan   x="393.975" dy="7.103">Number=Sing</tspan>
</text>
<text id="word__N_7" x="453.998" y="-13" font-style="normal" font-weight="normal" fill="black" font-size="12" font-family="Arial" text-anchor="middle" text-align="center">
<tspan   x="453.998" dy="10.748">from</tspan>
</text>
<text id="subword__N_7" x="453.998" y="-2.252" fill="black" font-size="7" font-family="Arial" text-anchor="middle" text-align="center">
<tspan   x="453.998" dy="7.103">upos=ADP</tspan>
<tspan   x="453.998" dy="7.103">lemma=from</tspan>
</text>
<text id="word__N_8" x="515.627" y="-13" font-style="normal" font-weight="normal" fill="black" font-size="12" font-family="Arial" text-anchor="middle" text-align="center">
<tspan   x="515.627" dy="10.748">boston</tspan>
</text>
<text id="subword__N_8" x="515.627" y="-2.252" fill="black" font-size="7" font-family="Arial" text-anchor="middle" text-align="center">
<tspan   x="515.627" dy="7.103">upos=PROPN</tspan>
<tspan   x="515.627" dy="7.103">lemma=boston</tspan>
<tspan   x="515.627" dy="7.103">Number=Sing</tspan>
</text>
<text id="word__N_9" x="574.624" y="-13" font-style="normal" font-weight="normal" fill="black" font-size="12" font-family="Arial" text-anchor="middle" text-align="center">
<tspan   x="574.624" dy="10.748">to</tspan>
</text>
<text id="subword__N_9" x="574.624" y="-2.252" fill="black" font-size="7" font-family="Arial" text-anchor="middle" text-align="center">
<tspan   x="574.624" dy="7.103">upos=ADP</tspan>
<tspan   x="574.624" dy="7.103">lemma=to</tspan>
</text>
<text id="word__N_10" x="632.634" y="-13" font-style="normal" font-weight="normal" fill="black" font-size="12" font-family="Arial" text-anchor="middle" text-align="center">
<tspan   x="632.634" dy="10.748">san</tspan>
</text>
<text id="subword__N_10" x="632.634" y="-2.252" fill="black" font-size="7" font-family="Arial" text-anchor="middle" text-align="center">
<tspan   x="632.634" dy="7.103">upos=PROPN</tspan>
<tspan   x="632.634" dy="7.103">lemma=san</tspan>
<tspan   x="632.634" dy="7.103">Number=Sing</tspan>
</text>
<text id="word__N_11" x="700.367" y="-13" font-style="normal" font-weight="normal" fill="black" font-size="12" font-family="Arial" text-anchor="middle" text-align="center">
<tspan   x="700.367" dy="10.748">francisco</tspan>
</text>
<text id="subword__N_11" x="700.367" y="-2.252" fill="black" font-size="7" font-family="Arial" text-anchor="middle" text-align="center">
<tspan   x="700.367" dy="7.103">upos=PROPN</tspan>
<tspan   x="700.367" dy="7.103">lemma=francisco</tspan>
<tspan   x="700.367" dy="7.103">Number=Sing</tspan>
</text>
<text id="word__N_12" x="764.575" y="-13" font-style="normal" font-weight="normal" fill="black" font-size="12" font-family="Arial" text-anchor="middle" text-align="center">
<tspan   x="764.575" dy="10.748">that</tspan>
</text>
<text id="subword__N_12" x="764.575" y="-2.252" fill="black" font-size="7" font-family="Arial" text-anchor="middle" text-align="center">
<tspan   x="764.575" dy="7.103">upos=ADP</tspan>
<tspan   x="764.575" dy="7.103">lemma=that</tspan>
</text>
<text id="word__N_13" x="824.752" y="-13" font-style="normal" font-weight="normal" fill="black" font-size="12" font-family="Arial" text-anchor="middle" text-align="center">
<tspan   x="824.752" dy="10.748">stops</tspan>
</text>
<text id="subword__N_13" x="824.752" y="-2.252" fill="black" font-size="7" font-family="Arial" text-anchor="middle" text-align="center">
<tspan   x="824.752" dy="7.103">upos=VERB</tspan>
<tspan   x="824.752" dy="7.103">lemma=stop</tspan>
<tspan   x="824.752" dy="7.103">Mood=Ind</tspan>
<tspan   x="824.752" dy="7.103">Number=Sing</tspan>
<tspan   x="824.752" dy="7.103">Person=3</tspan>
<tspan   x="824.752" dy="7.103">Tense=Pres</tspan>
<tspan   x="824.752" dy="7.103">VerbForm=Fin</tspan>
</text>
<text id="word__N_14" x="883.294" y="-13" font-style="normal" font-weight="normal" fill="black" font-size="12" font-family="Arial" text-anchor="middle" text-align="center">
<tspan   x="883.294" dy="10.748">in</tspan>
</text>
<text id="subword__N_14" x="883.294" y="-2.252" fill="black" font-size="7" font-family="Arial" text-anchor="middle" text-align="center">
<tspan   x="883.294" dy="7.103">upos=ADP</tspan>
<tspan   x="883.294" dy="7.103">lemma=in</tspan>
</text>
<text id="word__N_15" x="942.683" y="-13" font-style="normal" font-weight="normal" fill="black" font-size="12" font-family="Arial" text-anchor="middle" text-align="center">
<tspan   x="942.683" dy="10.748">denver</tspan>
</text>
<text id="subword__N_15" x="942.683" y="-2.252" fill="black" font-size="7" font-family="Arial" text-anchor="middle" text-align="center">
<tspan   x="942.683" dy="7.103">upos=PROPN</tspan>
<tspan   x="942.683" dy="7.103">lemma=denver</tspan>
<tspan   x="942.683" dy="7.103">Number=Sing</tspan>
</text>

<marker id="markerendword_2" markerWidth="5" markerHeight="5" markerUnits="userSpaceOnUse" orient="auto" refX="2" refY="2">
<path d="M0,0 l4,2 l-4,2 z" style="fill:black;"/>
</marker>
<rect x="160.65800" y="-30.64500" width="15.25500" height="9" style="fill:#8bf56e;fill-opacity:100;" />
<text id="label__N_3__N_2__nsubj" x="168.28550" y="-25" style="fill:black;font-size:5px;font-family:Arial;text-anchor:middle;text-align:center" >nsubj</text>
<path style="marker-end:url(#markerendword_2);" stroke="black" fill="none" d="M 195.10850,-14 195.10850,-19 A 3 3 0 0 0 192.10850,-22 L 144.78550,-22 A 3 3 0 0 0 141.78550,-19 L 141.78550,-14" ></path>
<marker id="markerendword_3" markerWidth="5" markerHeight="5" markerUnits="userSpaceOnUse" orient="auto" refX="2" refY="2">
<path d="M0,0 l4,2 l-4,2 z" style="fill:black;"/>
</marker>
<text id="label__N_3__N_4__iobj" x="241.60850" y="-25" style="fill:black;font-size:5px;font-family:Arial;text-anchor:middle;text-align:center" >iobj</text>
<path style="marker-end:url(#markerendword_3);" stroke="black" fill="none" d="M 215.10850,-14 215.10850,-19 A 3 3 0 0 1 218.10850,-22 L 265.43150,-22 A 3 3 0 0 1 268.43150,-19 L 268.43150,-12" ></path>
<marker id="markerendword_5" markerWidth="5" markerHeight="5" markerUnits="userSpaceOnUse" orient="auto" refX="2" refY="2">
<path d="M0,0 l4,2 l-4,2 z" style="fill:black;"/>
</marker>
<text id="label__N_6__N_5__det" x="357.72300" y="-25" style="fill:black;font-size:5px;font-family:Arial;text-anchor:middle;text-align:center" >det</text>
<path style="marker-end:url(#markerendword_5);" stroke="black" fill="none" d="M 383.97500,-14 383.97500,-19 A 3 3 0 0 0 380.97500,-22 L 334.72300,-22 A 3 3 0 0 0 331.72300,-19 L 331.72300,-12" ></path>
<marker id="markerendword_9" markerWidth="5" markerHeight="5" markerUnits="userSpaceOnUse" orient="auto" refX="2" refY="2">
<path d="M0,0 l4,2 l-4,2 z" style="fill:black;"/>
</marker>
<text id="label__N_8__N_7__case" x="483.49750" y="-23" style="fill:black;font-size:5px;font-family:Arial;text-anchor:middle;text-align:center" >case</text>
<path style="marker-end:url(#markerendword_9);" stroke="black" fill="none" d="M 513.12650,-12 513.12650,-17 A 3 3 0 0 0 510.12650,-20 L 456.99750,-20 A 3 3 0 0 0 453.99750,-17 L 453.99750,-12" ></path>
<marker id="markerendword_10" markerWidth="5" markerHeight="5" markerUnits="userSpaceOnUse" orient="auto" refX="2" refY="2">
<path d="M0,0 l4,2 l-4,2 z" style="fill:black;"/>
</marker>
<text id="label__N_10__N_9__case" x="601.12350" y="-23" style="fill:black;font-size:5px;font-family:Arial;text-anchor:middle;text-align:center" >case</text>
<path style="marker-end:url(#markerendword_10);" stroke="black" fill="none" d="M 627.63350,-12 627.63350,-17 A 3 3 0 0 0 624.63350,-20 L 577.62350,-20 A 3 3 0 0 0 574.62350,-17 L 574.62350,-12" ></path>
<marker id="markerendword_11" markerWidth="5" markerHeight="5" markerUnits="userSpaceOnUse" orient="auto" refX="2" refY="2">
<path d="M0,0 l4,2 l-4,2 z" style="fill:black;"/>
</marker>
<text id="label__N_10__N_11__flat" x="668.63350" y="-23" style="fill:black;font-size:5px;font-family:Arial;text-anchor:middle;text-align:center" >flat</text>
<path style="marker-end:url(#markerendword_11);" stroke="black" fill="none" d="M 637.63350,-12 637.63350,-17 A 3 3 0 0 1 640.63350,-20 L 697.36650,-20 A 3 3 0 0 1 700.36650,-17 L 700.36650,-12" ></path>
<marker id="markerendword_12" markerWidth="5" markerHeight="5" markerUnits="userSpaceOnUse" orient="auto" refX="2" refY="2">
<path d="M0,0 l4,2 l-4,2 z" style="fill:black;"/>
</marker>
<text id="label__N_13__N_12__mark" x="792.07500" y="-23" style="fill:black;font-size:5px;font-family:Arial;text-anchor:middle;text-align:center" >mark</text>
<path style="marker-end:url(#markerendword_12);" stroke="black" fill="none" d="M 819.75150,-12 819.75150,-17 A 3 3 0 0 0 816.75150,-20 L 767.57500,-20 A 3 3 0 0 0 764.57500,-17 L 764.57500,-12" ></path>
<marker id="markerendword_14" markerWidth="5" markerHeight="5" markerUnits="userSpaceOnUse" orient="auto" refX="2" refY="2">
<path d="M0,0 l4,2 l-4,2 z" style="fill:black;"/>
</marker>
<text id="label__N_15__N_14__case" x="911.29350" y="-23" style="fill:black;font-size:5px;font-family:Arial;text-anchor:middle;text-align:center" >case</text>
<path style="marker-end:url(#markerendword_14);" stroke="black" fill="none" d="M 940.18250,-12 940.18250,-17 A 3 3 0 0 0 937.18250,-20 L 886.29350,-20 A 3 3 0 0 0 883.29350,-17 L 883.29350,-12" ></path>
<marker id="markerendword_1" markerWidth="5" markerHeight="5" markerUnits="userSpaceOnUse" orient="auto" refX="2" refY="2">
<path d="M0,0 l4,2 l-4,2 z" style="fill:black;"/>
</marker>
<text id="label__N_3__N_1__aux" x="141.07450" y="-35" style="fill:black;font-size:5px;font-family:Arial;text-anchor:middle;text-align:center" >aux</text>
<path style="marker-end:url(#markerendword_1);" stroke="black" fill="none" d="M 200.10850,-14 200.10850,-29 A 3 3 0 0 0 197.10850,-32 L 85.07450,-32 A 3 3 0 0 0 82.07450,-29 L 82.07450,-12" ></path>
<marker id="markerendword_6" markerWidth="5" markerHeight="5" markerUnits="userSpaceOnUse" orient="auto" refX="2" refY="2">
<path d="M0,0 l4,2 l-4,2 z" style="fill:black;"/>
</marker>
<text id="label__N_6__N_8__nmod" x="460.97500" y="-35" style="fill:black;font-size:5px;font-family:Arial;text-anchor:middle;text-align:center" >nmod</text>
<path style="marker-end:url(#markerendword_6);" stroke="black" fill="none" d="M 403.97500,-14 403.97500,-29 A 3 3 0 0 1 406.97500,-32 L 515.12650,-32 A 3 3 0 0 1 518.12650,-29 L 518.12650,-12" ></path>
<marker id="markerendword_13" markerWidth="5" markerHeight="5" markerUnits="userSpaceOnUse" orient="auto" refX="2" refY="2">
<path d="M0,0 l4,2 l-4,2 z" style="fill:black;"/>
</marker>
<text id="label__N_13__N_15__obl" x="887.25150" y="-33" style="fill:black;font-size:5px;font-family:Arial;text-anchor:middle;text-align:center" >obl</text>
<path style="marker-end:url(#markerendword_13);" stroke="black" fill="none" d="M 829.75150,-12 829.75150,-27 A 3 3 0 0 1 832.75150,-30 L 942.18250,-30 A 3 3 0 0 1 945.18250,-27 L 945.18250,-12" ></path>
<marker id="markerendword_0" markerWidth="5" markerHeight="5" markerUnits="userSpaceOnUse" orient="auto" refX="2" refY="2">
<path d="M0,0 l4,2 l-4,2 z" style="fill:black;"/>
</marker>
<text id="label__N_0__N_3__root" x="115.68400" y="-43" style="fill:black;font-size:5px;font-family:Arial;text-anchor:middle;text-align:center" >root</text>
<path style="marker-end:url(#markerendword_0);" stroke="black" fill="none" d="M 27.18400,-12 27.18400,-37 A 3 3 0 0 1 30.18400,-40 L 202.10850,-40 A 3 3 0 0 1 205.10850,-37 L 205.10850,-14" ></path>
<marker id="markerendword_4" markerWidth="5" markerHeight="5" markerUnits="userSpaceOnUse" orient="auto" refX="2" refY="2">
<path d="M0,0 l4,2 l-4,2 z" style="fill:black;"/>
</marker>
<rect x="294.03600" y="-40.64500" width="10.14500" height="9" style="fill:#8bf56e;fill-opacity:100;" />
<text id="label__N_3__N_6__obj" x="299.10850" y="-35" style="fill:black;font-size:5px;font-family:Arial;text-anchor:middle;text-align:center" >obj</text>
<path style="marker-end:url(#markerendword_4);" stroke="black" fill="none" d="M 210.10850,-14 210.10850,-29 A 3 3 0 0 1 213.10850,-32 L 385.97500,-32 A 3 3 0 0 1 388.97500,-29 L 388.97500,-14" ></path>
<marker id="markerendword_7" markerWidth="5" markerHeight="5" markerUnits="userSpaceOnUse" orient="auto" refX="2" refY="2">
<path d="M0,0 l4,2 l-4,2 z" style="fill:black;"/>
</marker>
<text id="label__N_6__N_10__nmod" x="515.47500" y="-45" style="fill:black;font-size:5px;font-family:Arial;text-anchor:middle;text-align:center" >nmod</text>
<path style="marker-end:url(#markerendword_7);" stroke="black" fill="none" d="M 398.97500,-14 398.97500,-39 A 3 3 0 0 1 401.97500,-42 L 629.63350,-42 A 3 3 0 0 1 632.63350,-39 L 632.63350,-12" ></path>
<marker id="markerendword_8" markerWidth="5" markerHeight="5" markerUnits="userSpaceOnUse" orient="auto" refX="2" refY="2">
<path d="M0,0 l4,2 l-4,2 z" style="fill:black;"/>
</marker>
<text id="label__N_6__N_13__acl:relcl" x="608.97500" y="-55" style="fill:black;font-size:5px;font-family:Arial;text-anchor:middle;text-align:center" >acl:relcl</text>
<path style="marker-end:url(#markerendword_8);" stroke="black" fill="none" d="M 393.97500,-14 393.97500,-49 A 3 3 0 0 1 396.97500,-52 L 821.75150,-52 A 3 3 0 0 1 824.75150,-49 L 824.75150,-12" ></path>


</g>
</svg>
